<?xml version="1.0" encoding="UTF-8" standalone="no"?>
<!DOCTYPE svg PUBLIC "-//W3C//DTD SVG 1.1//EN"
 "http://www.w3.org/Graphics/SVG/1.1/DTD/svg11.dtd">
<!-- Generated by graphviz version 2.36.0 (20140111.2315)
 -->
<!-- Title: G Pages: 1 -->
<svg width="1109pt" height="222pt"
 viewBox="0.00 0.00 1109.20 222.07" xmlns="http://www.w3.org/2000/svg" xmlns:xlink="http://www.w3.org/1999/xlink">
<g id="graph0" class="graph" transform="scale(1 1) rotate(0) translate(21.6 200.474)">
<title>G</title>
<polygon fill="#111111" stroke="none" points="-21.6,21.6 -21.6,-200.474 1087.6,-200.474 1087.6,21.6 -21.6,21.6"/>
<!-- index.js -->
<g id="node1" class="node"><title>index.js</title>
<path fill="none" stroke="#c6c5fe" d="M56.3333,-47.8151C56.3333,-47.8151 7.66667,-47.8151 7.66667,-47.8151 3.83333,-47.8151 0,-43.9817 0,-40.1484 0,-40.1484 0,-32.4817 0,-32.4817 0,-28.6484 3.83333,-24.8151 7.66667,-24.8151 7.66667,-24.8151 56.3333,-24.8151 56.3333,-24.8151 60.1667,-24.8151 64,-28.6484 64,-32.4817 64,-32.4817 64,-40.1484 64,-40.1484 64,-43.9817 60.1667,-47.8151 56.3333,-47.8151"/>
<text text-anchor="middle" x="32" y="-32.6151" font-family="Arial" font-size="14.00" fill="#c6c5fe">index.js</text>
</g>
<!-- src/skeleton.js -->
<g id="node2" class="node"><title>src/skeleton.js</title>
<path fill="none" stroke="#c6c5fe" d="M695.833,-36.8151C695.833,-36.8151 606.167,-36.8151 606.167,-36.8151 602.333,-36.8151 598.5,-32.9817 598.5,-29.1484 598.5,-29.1484 598.5,-21.4817 598.5,-21.4817 598.5,-17.6484 602.333,-13.8151 606.167,-13.8151 606.167,-13.8151 695.833,-13.8151 695.833,-13.8151 699.667,-13.8151 703.5,-17.6484 703.5,-21.4817 703.5,-21.4817 703.5,-29.1484 703.5,-29.1484 703.5,-32.9817 699.667,-36.8151 695.833,-36.8151"/>
<text text-anchor="middle" x="651" y="-21.6151" font-family="Arial" font-size="14.00" fill="#c6c5fe">src/skeleton.js</text>
</g>
<!-- index.js&#45;&gt;src/skeleton.js -->
<g id="edge1" class="edge"><title>index.js&#45;&gt;src/skeleton.js</title>
<path fill="none" stroke="#757575" d="M64.0754,-31.1484C110.781,-23.6712 201.927,-10.1952 280,-5.31505 382.91,1.11765 409.156,2.0987 512,-5.31505 537.142,-7.12747 564.662,-10.7742 588.466,-14.4633"/>
<polygon fill="#757575" stroke="#757575" points="587.997,-17.9327 598.422,-16.0417 589.093,-11.0191 587.997,-17.9327"/>
</g>
<!-- src/skeletonPlugin.js -->
<g id="node3" class="node"><title>src/skeletonPlugin.js</title>
<path fill="none" stroke="#c6c5fe" d="M236.333,-98.8151C236.333,-98.8151 107.667,-98.8151 107.667,-98.8151 103.833,-98.8151 100,-94.9817 100,-91.1484 100,-91.1484 100,-83.4817 100,-83.4817 100,-79.6484 103.833,-75.8151 107.667,-75.8151 107.667,-75.8151 236.333,-75.8151 236.333,-75.8151 240.167,-75.8151 244,-79.6484 244,-83.4817 244,-83.4817 244,-91.1484 244,-91.1484 244,-94.9817 240.167,-98.8151 236.333,-98.8151"/>
<text text-anchor="middle" x="172" y="-83.6151" font-family="Arial" font-size="14.00" fill="#c6c5fe">src/skeletonPlugin.js</text>
</g>
<!-- index.js&#45;&gt;src/skeletonPlugin.js -->
<g id="edge2" class="edge"><title>index.js&#45;&gt;src/skeletonPlugin.js</title>
<path fill="none" stroke="#757575" d="M63.6267,-47.6336C83.4583,-54.9627 109.491,-64.5835 130.957,-72.5164"/>
<polygon fill="#757575" stroke="#757575" points="129.866,-75.8446 140.459,-76.0281 132.292,-69.2786 129.866,-75.8446"/>
</g>
<!-- src/util/index.js -->
<g id="node8" class="node"><title>src/util/index.js</title>
<path fill="none" stroke="#c6c5fe" d="M890.333,-105.815C890.333,-105.815 797.667,-105.815 797.667,-105.815 793.833,-105.815 790,-101.982 790,-98.1484 790,-98.1484 790,-90.4817 790,-90.4817 790,-86.6484 793.833,-82.8151 797.667,-82.8151 797.667,-82.8151 890.333,-82.8151 890.333,-82.8151 894.167,-82.8151 898,-86.6484 898,-90.4817 898,-90.4817 898,-98.1484 898,-98.1484 898,-101.982 894.167,-105.815 890.333,-105.815"/>
<text text-anchor="middle" x="844" y="-90.6151" font-family="Arial" font-size="14.00" fill="#c6c5fe">src/util/index.js</text>
</g>
<!-- src/skeleton.js&#45;&gt;src/util/index.js -->
<g id="edge6" class="edge"><title>src/skeleton.js&#45;&gt;src/util/index.js</title>
<path fill="none" stroke="#757575" d="M703.717,-36.3647C720.015,-40.412 737.948,-45.4588 754,-51.3151 774.539,-58.8084 796.678,-69.4937 813.738,-78.3378"/>
<polygon fill="#757575" stroke="#757575" points="812.171,-81.4683 822.65,-83.0297 815.432,-75.2742 812.171,-81.4683"/>
</g>
<!-- src/config/config.js -->
<g id="node4" class="node"><title>src/config/config.js</title>
<path fill="none" stroke="#cfffac" d="M1058.33,-164.815C1058.33,-164.815 941.667,-164.815 941.667,-164.815 937.833,-164.815 934,-160.982 934,-157.148 934,-157.148 934,-149.482 934,-149.482 934,-145.648 937.833,-141.815 941.667,-141.815 941.667,-141.815 1058.33,-141.815 1058.33,-141.815 1062.17,-141.815 1066,-145.648 1066,-149.482 1066,-149.482 1066,-157.148 1066,-157.148 1066,-160.982 1062.17,-164.815 1058.33,-164.815"/>
<text text-anchor="middle" x="1000" y="-149.615" font-family="Arial" font-size="14.00" fill="#cfffac">src/config/config.js</text>
</g>
<!-- src/skeletonPlugin.js&#45;&gt;src/config/config.js -->
<g id="edge7" class="edge"><title>src/skeletonPlugin.js&#45;&gt;src/config/config.js</title>
<path fill="none" stroke="#757575" d="M190.266,-98.7822C210.701,-111.642 246.228,-131.809 280,-140.315 508.609,-197.894 791.16,-177.604 923.694,-162.992"/>
<polygon fill="#757575" stroke="#757575" points="924.197,-166.457 933.743,-161.863 923.415,-159.501 924.197,-166.457"/>
</g>
<!-- src/config/optionsSchema.json -->
<g id="node5" class="node"><title>src/config/optionsSchema.json</title>
<path fill="none" stroke="#cfffac" d="M746.333,-116.815C746.333,-116.815 555.667,-116.815 555.667,-116.815 551.833,-116.815 548,-112.982 548,-109.148 548,-109.148 548,-101.482 548,-101.482 548,-97.6484 551.833,-93.8151 555.667,-93.8151 555.667,-93.8151 746.333,-93.8151 746.333,-93.8151 750.167,-93.8151 754,-97.6484 754,-101.482 754,-101.482 754,-109.148 754,-109.148 754,-112.982 750.167,-116.815 746.333,-116.815"/>
<text text-anchor="middle" x="651" y="-101.615" font-family="Arial" font-size="14.00" fill="#cfffac">src/config/optionsSchema.json</text>
</g>
<!-- src/skeletonPlugin.js&#45;&gt;src/config/optionsSchema.json -->
<g id="edge8" class="edge"><title>src/skeletonPlugin.js&#45;&gt;src/config/optionsSchema.json</title>
<path fill="none" stroke="#757575" d="M244.154,-90.0001C321.756,-92.9285 447.005,-97.6548 537.858,-101.083"/>
<polygon fill="#757575" stroke="#757575" points="537.802,-104.584 547.926,-101.463 538.066,-97.5885 537.802,-104.584"/>
</g>
<!-- src/config/optionsValidationError.js -->
<g id="node6" class="node"><title>src/config/optionsValidationError.js</title>
<path fill="none" stroke="#c6c5fe" d="M504.333,-78.8151C504.333,-78.8151 287.667,-78.8151 287.667,-78.8151 283.833,-78.8151 280,-74.9817 280,-71.1484 280,-71.1484 280,-63.4817 280,-63.4817 280,-59.6484 283.833,-55.8151 287.667,-55.8151 287.667,-55.8151 504.333,-55.8151 504.333,-55.8151 508.167,-55.8151 512,-59.6484 512,-63.4817 512,-63.4817 512,-71.1484 512,-71.1484 512,-74.9817 508.167,-78.8151 504.333,-78.8151"/>
<text text-anchor="middle" x="396" y="-63.6151" font-family="Arial" font-size="14.00" fill="#c6c5fe">src/config/optionsValidationError.js</text>
</g>
<!-- src/skeletonPlugin.js&#45;&gt;src/config/optionsValidationError.js -->
<g id="edge9" class="edge"><title>src/skeletonPlugin.js&#45;&gt;src/config/optionsValidationError.js</title>
<path fill="none" stroke="#757575" d="M244.158,-80.9044C252.362,-80.1653 260.901,-79.396 269.559,-78.6161"/>
<polygon fill="#757575" stroke="#757575" points="270.119,-82.0799 279.764,-77.6966 269.491,-75.1081 270.119,-82.0799"/>
</g>
<!-- src/server.js -->
<g id="node7" class="node"><title>src/server.js</title>
<path fill="none" stroke="#c6c5fe" d="M434.333,-37.8151C434.333,-37.8151 357.667,-37.8151 357.667,-37.8151 353.833,-37.8151 350,-33.9817 350,-30.1484 350,-30.1484 350,-22.4817 350,-22.4817 350,-18.6484 353.833,-14.8151 357.667,-14.8151 357.667,-14.8151 434.333,-14.8151 434.333,-14.8151 438.167,-14.8151 442,-18.6484 442,-22.4817 442,-22.4817 442,-30.1484 442,-30.1484 442,-33.9817 438.167,-37.8151 434.333,-37.8151"/>
<text text-anchor="middle" x="396" y="-22.6151" font-family="Arial" font-size="14.00" fill="#c6c5fe">src/server.js</text>
</g>
<!-- src/skeletonPlugin.js&#45;&gt;src/server.js -->
<g id="edge10" class="edge"><title>src/skeletonPlugin.js&#45;&gt;src/server.js</title>
<path fill="none" stroke="#757575" d="M198.476,-75.9442C219.866,-66.7908 251.425,-54.1943 280,-46.3151 299.209,-41.0183 320.628,-36.8398 339.725,-33.7021"/>
<polygon fill="#757575" stroke="#757575" points="340.441,-37.1324 349.77,-32.1107 339.346,-30.2186 340.441,-37.1324"/>
</g>
<!-- src/skeletonPlugin.js&#45;&gt;src/util/index.js -->
<g id="edge11" class="edge"><title>src/skeletonPlugin.js&#45;&gt;src/util/index.js</title>
<path fill="none" stroke="#757575" d="M218.021,-98.6234C237.03,-102.972 259.474,-107.552 280,-110.315 488.888,-138.437 546.181,-160.472 754,-125.315 772.437,-122.196 792.149,-115.684 808.324,-109.43"/>
<polygon fill="#757575" stroke="#757575" points="809.909,-112.565 817.894,-105.602 807.31,-106.066 809.909,-112.565"/>
</g>
<!-- src/config/optionsValidationError.js&#45;&gt;src/config/optionsSchema.json -->
<g id="edge3" class="edge"><title>src/config/optionsValidationError.js&#45;&gt;src/config/optionsSchema.json</title>
<path fill="none" stroke="#757575" d="M472.223,-78.6134C501.406,-82.9966 534.972,-88.0381 565.022,-92.5515"/>
<polygon fill="#757575" stroke="#757575" points="564.658,-96.036 575.066,-94.0602 565.697,-89.1136 564.658,-96.036"/>
</g>
<!-- src/server.js&#45;&gt;src/skeleton.js -->
<g id="edge4" class="edge"><title>src/server.js&#45;&gt;src/skeleton.js</title>
<path fill="none" stroke="#757575" d="M442.231,-26.1363C482.845,-25.9757 542.839,-25.7386 587.932,-25.5604"/>
<polygon fill="#757575" stroke="#757575" points="588.196,-29.0595 598.182,-25.5199 588.168,-22.0595 588.196,-29.0595"/>
</g>
<!-- src/server.js&#45;&gt;src/util/index.js -->
<g id="edge5" class="edge"><title>src/server.js&#45;&gt;src/util/index.js</title>
<path fill="none" stroke="#757575" d="M442.219,-33.2095C522.158,-45.3975 688.588,-70.7724 779.82,-84.6822"/>
<polygon fill="#757575" stroke="#757575" points="779.341,-88.1496 789.755,-86.1969 780.396,-81.2296 779.341,-88.1496"/>
</g>
<!-- src/util/index.js&#45;&gt;src/config/config.js -->
<g id="edge12" class="edge"><title>src/util/index.js&#45;&gt;src/config/config.js</title>
<path fill="none" stroke="#757575" d="M874.693,-105.691C898.98,-114.996 933.519,-128.228 960.029,-138.385"/>
<polygon fill="#757575" stroke="#757575" points="958.808,-141.665 969.398,-141.974 961.312,-135.128 958.808,-141.665"/>
</g>
</g>
</svg>
